<?xml version="1.0" encoding="UTF-8"?>
<svg id="Layer_1" data-name="Layer 1" xmlns="http://www.w3.org/2000/svg" viewBox="0 0 400 400">
  <g id="Layer_1-2" data-name="Layer_1">
    <g id="_1253128880" data-name=" 1253128880">
      <rect x="0" y="0" width="400" height="400" fill="transparent" stroke-width="0"/>
      <g>
        <path d="m200,22.351c92.916,0,168.239,75.324,168.239,168.239,0,16.025-2.242,31.528-6.428,46.21L200,103.54,38.188,236.801c-4.185-14.682-6.428-30.185-6.428-46.21C31.76,97.674,107.083,22.351,199.999,22.351h.001Z" fill="#fff" fill-rule="evenodd" stroke-width="0"/>
        <path d="m362.159,282.632v95.017h-47.517v-95.017l23.758-23.759,23.759,23.759h0Zm-276.8,0v95.017h-47.518v-95.017l23.759-23.759,23.759,23.759h0Zm69.2,25.206v69.812h-47.517v-69.812l23.759-23.759,23.759,23.759Zm69.2,30.247v39.565h-47.518v-39.565l23.759-23.759,23.759,23.759Zm69.2-30.247v69.812h-47.517v-69.812l23.759-23.759,23.759,23.759Z" fill="#fff" fill-rule="evenodd" stroke-width="0"/>
        <path d="m165.415,186.619h28.283v28.283h-28.283v-28.283Zm0,40.887h28.283v28.283h-28.283v-28.283Zm40.887,0h28.283v28.283h-28.283v-28.283Zm0-40.887h28.283v28.283h-28.283v-28.283Z" fill="#fff" fill-rule="evenodd" stroke-width="0"/>
      </g>
    </g>
  </g>
</svg>