<?xml version="1.0" encoding="UTF-8"?>
<svg id="Layer_1" data-name="Layer 1" xmlns="http://www.w3.org/2000/svg" viewBox="0 0 1080 1080">
  <path d="m936.918,519.78l1.665-.992,36.254-21.212,72.478-42.438-72.478-42.44-36.254-21.228-1.665-.974v129.285Zm-578.092,211.172v-42.422l36.238-21.228,36.222,21.228,36.251,21.195,36.221,21.228,36.239,21.228,36.239-21.228,36.238-21.228,36.239-21.195,36.222-21.228,36.254-21.212v84.863l-36.254,21.228-36.222,21.212-36.239,21.21-36.238,21.228-36.239,21.212-36.239-21.212-36.221-21.228-36.251-21.21-36.222-21.212-36.238-21.228Zm-181.192-275.814l36.238-21.212,36.239-21.228,36.238-21.228,36.238-21.195,36.238-21.228,36.238-21.212,36.222-21.21,36.251-21.228,36.221-21.212,108.716-63.651-36.238-21.212-36.239-21.226-36.239,21.226-36.221,21.212-36.251,21.212-36.222,21.228-36.238,21.21-36.238,21.212-36.238,21.228-36.238,21.21-36.239,21.212-36.238,21.228-36.238,21.195-36.234,21.228-72.477,42.44,72.477,42.438,36.234,21.212,36.238,21.212,36.238,21.226,36.239,21.212,36.238,21.212,36.238,21.228-36.238,21.21v127.303l36.238,21.21,36.238,21.228,36.238,21.212,36.222,21.21,36.251,21.228,36.221,21.197,36.239,21.228,36.239-21.228,36.238-21.197,36.239-21.228,36.222-21.21,36.254-21.212,36.221-21.228,36.239-21.21v-169.741l36.239-21.212,36.239-21.212,34.794-20.381v64.366c-4.553,3.284-7.503,6.727-7.503,14.759s7.965,18.058,17.822,18.058,17.81-10.029,17.81-18.058-2.967-11.475-7.502-14.759v-240.594c0-8.582-6.908-15.57-15.371-15.57h-40.05l-36.239-21.212-36.239-21.21-36.239-21.228-36.221-21.212-36.254-21.21h0l-72.478,42.422h.017l-36.238,21.228-36.239,21.21-36.239,21.212-36.221,21.228-36.251,21.195-36.222,21.228-36.238,21.228-36.238,21.212,36.238,21.21,36.238,21.228,36.222-21.228,36.251-21.21,36.221-21.212,36.239-21.228,36.239-21.228,36.238-21.195,36.239-21.228,36.222-21.212,36.254,21.212,36.221,21.228,36.239,21.195,36.239,21.228,36.239,21.228,34.794,20.368v1.674l-34.794,20.381-36.239,21.228-36.239,21.212-36.239,21.212-36.221,21.226-36.254,21.212-36.222,21.212-36.239,21.228-36.238,21.21-36.239,21.212-36.239-21.212-36.221-21.21,36.221-21.228,36.239-21.212,36.239-21.212,36.238-21.226,36.239-21.212,36.222-21.212,36.254-21.228,36.221-21.21-36.221-21.212-36.254-21.228-36.222,21.228-36.239,21.212-36.238,21.21-36.239,21.228-36.239,21.212-36.221,21.212-36.251,21.226-36.222,21.212-36.238-21.212-36.238-21.226-36.238-21.212-36.238-21.212-36.239-21.228-36.238-21.21Zm725.66,185.539l-3.109,10.662-11.06,38.036h44.219l-11.061-38.036-3.092-10.662c-2.404,1.204-5.097,1.886-7.951,1.886s-5.575-.682-7.947-1.886Z" fill="#0d9488" stroke-width="0"/>
</svg>